<mxfile host="app.diagrams.net" modified="2021-07-01T05:51:11.952Z" agent="5.0 (Macintosh; Intel Mac OS X 10_15_7) AppleWebKit/537.36 (KHTML, like Gecko) Chrome/91.0.4472.114 Safari/537.36" etag="5gBsniw2pmhcG0SjvjRb" version="14.8.2" type="github">
  <diagram id="R2lEEEUBdFMjLlhIrx00" name="Page-1">
    <mxGraphModel dx="946" dy="614" grid="1" gridSize="10" guides="1" tooltips="1" connect="1" arrows="1" fold="1" page="1" pageScale="1" pageWidth="850" pageHeight="1100" math="0" shadow="0" extFonts="Permanent Marker^https://fonts.googleapis.com/css?family=Permanent+Marker">
      <root>
        <mxCell id="0" />
        <mxCell id="1" parent="0" />
        <mxCell id="z0YsIwwLCyYLcJz00GNt-2" value="&lt;font style=&quot;font-size: 18px&quot;&gt;Teach&lt;/font&gt;" style="rhombus;whiteSpace=wrap;html=1;" vertex="1" parent="1">
          <mxGeometry x="290" y="149" width="120" height="59" as="geometry" />
        </mxCell>
        <mxCell id="z0YsIwwLCyYLcJz00GNt-4" value="&lt;font style=&quot;font-size: 18px&quot;&gt;Teacher&lt;/font&gt;" style="rounded=0;whiteSpace=wrap;html=1;" vertex="1" parent="1">
          <mxGeometry x="135" y="160" width="110" height="40" as="geometry" />
        </mxCell>
        <mxCell id="z0YsIwwLCyYLcJz00GNt-6" value="&lt;font style=&quot;font-size: 18px&quot;&gt;&lt;u&gt;id&lt;/u&gt;&lt;/font&gt;" style="ellipse;whiteSpace=wrap;html=1;" vertex="1" parent="1">
          <mxGeometry x="60" y="70" width="100" height="40" as="geometry" />
        </mxCell>
        <mxCell id="z0YsIwwLCyYLcJz00GNt-17" value="" style="endArrow=none;html=1;startArrow=none;startFill=0;entryX=0.5;entryY=0;entryDx=0;entryDy=0;" edge="1" parent="1">
          <mxGeometry width="50" height="50" relative="1" as="geometry">
            <mxPoint x="160" y="90" as="sourcePoint" />
            <mxPoint x="190" y="160" as="targetPoint" />
          </mxGeometry>
        </mxCell>
        <mxCell id="z0YsIwwLCyYLcJz00GNt-21" value="" style="line;strokeWidth=1;rotatable=0;dashed=0;labelPosition=right;align=left;verticalAlign=middle;spacingTop=0;spacingLeft=6;points=[];portConstraint=eastwest;rounded=0;sketch=0;" vertex="1" parent="1">
          <mxGeometry x="245" y="174" width="45" height="10" as="geometry" />
        </mxCell>
        <mxCell id="z0YsIwwLCyYLcJz00GNt-42" value="" style="endArrow=none;html=1;entryX=0;entryY=0.5;entryDx=0;entryDy=0;exitX=1;exitY=0.5;exitDx=0;exitDy=0;" edge="1" parent="1">
          <mxGeometry width="50" height="50" relative="1" as="geometry">
            <mxPoint x="410" y="178.5" as="sourcePoint" />
            <mxPoint x="490" y="179" as="targetPoint" />
          </mxGeometry>
        </mxCell>
        <mxCell id="z0YsIwwLCyYLcJz00GNt-46" value="&lt;u&gt;&lt;font style=&quot;font-size: 18px&quot;&gt;cid&lt;/font&gt;&lt;/u&gt;" style="ellipse;whiteSpace=wrap;html=1;" vertex="1" parent="1">
          <mxGeometry x="610" y="80" width="100" height="40" as="geometry" />
        </mxCell>
        <mxCell id="z0YsIwwLCyYLcJz00GNt-47" value="" style="endArrow=none;html=1;startArrow=none;startFill=0;entryX=0.5;entryY=0;entryDx=0;entryDy=0;exitX=0;exitY=0.5;exitDx=0;exitDy=0;" edge="1" parent="1" source="z0YsIwwLCyYLcJz00GNt-46" target="z0YsIwwLCyYLcJz00GNt-48">
          <mxGeometry width="50" height="50" relative="1" as="geometry">
            <mxPoint x="530" y="89" as="sourcePoint" />
            <mxPoint x="560" y="149" as="targetPoint" />
          </mxGeometry>
        </mxCell>
        <mxCell id="z0YsIwwLCyYLcJz00GNt-48" value="&lt;font style=&quot;font-size: 18px&quot;&gt;Teacher&lt;/font&gt;" style="rounded=0;whiteSpace=wrap;html=1;" vertex="1" parent="1">
          <mxGeometry x="480" y="158.5" width="110" height="40" as="geometry" />
        </mxCell>
        <mxCell id="z0YsIwwLCyYLcJz00GNt-58" value="" style="endArrow=none;html=1;exitX=0.5;exitY=0;exitDx=0;exitDy=0;entryX=0.5;entryY=1;entryDx=0;entryDy=0;" edge="1" parent="1" source="z0YsIwwLCyYLcJz00GNt-2" target="z0YsIwwLCyYLcJz00GNt-59">
          <mxGeometry width="50" height="50" relative="1" as="geometry">
            <mxPoint x="490" y="280" as="sourcePoint" />
            <mxPoint x="360" y="100" as="targetPoint" />
            <Array as="points" />
          </mxGeometry>
        </mxCell>
        <mxCell id="z0YsIwwLCyYLcJz00GNt-59" value="&lt;font style=&quot;font-size: 18px&quot;&gt;&lt;u&gt;since&lt;/u&gt;&lt;/font&gt;" style="ellipse;whiteSpace=wrap;html=1;" vertex="1" parent="1">
          <mxGeometry x="300" y="60" width="100" height="40" as="geometry" />
        </mxCell>
        <mxCell id="z0YsIwwLCyYLcJz00GNt-62" value="&lt;font style=&quot;font-size: 18px&quot;&gt;Teach&lt;/font&gt;" style="rhombus;whiteSpace=wrap;html=1;" vertex="1" parent="1">
          <mxGeometry x="290" y="309" width="120" height="59" as="geometry" />
        </mxCell>
        <mxCell id="z0YsIwwLCyYLcJz00GNt-63" value="&lt;font style=&quot;font-size: 18px&quot;&gt;Teacher&lt;/font&gt;" style="rounded=0;whiteSpace=wrap;html=1;" vertex="1" parent="1">
          <mxGeometry x="135" y="320" width="110" height="40" as="geometry" />
        </mxCell>
        <mxCell id="z0YsIwwLCyYLcJz00GNt-64" value="&lt;font style=&quot;font-size: 18px&quot;&gt;&lt;u&gt;id&lt;/u&gt;&lt;/font&gt;" style="ellipse;whiteSpace=wrap;html=1;" vertex="1" parent="1">
          <mxGeometry x="60" y="230" width="100" height="40" as="geometry" />
        </mxCell>
        <mxCell id="z0YsIwwLCyYLcJz00GNt-65" value="" style="endArrow=none;html=1;startArrow=none;startFill=0;entryX=0.5;entryY=0;entryDx=0;entryDy=0;" edge="1" parent="1">
          <mxGeometry width="50" height="50" relative="1" as="geometry">
            <mxPoint x="160" y="250" as="sourcePoint" />
            <mxPoint x="190" y="320" as="targetPoint" />
          </mxGeometry>
        </mxCell>
        <mxCell id="z0YsIwwLCyYLcJz00GNt-66" value="" style="line;strokeWidth=1;rotatable=0;dashed=0;labelPosition=right;align=left;verticalAlign=middle;spacingTop=0;spacingLeft=6;points=[];portConstraint=eastwest;rounded=0;sketch=0;" vertex="1" parent="1">
          <mxGeometry x="245" y="334" width="45" height="10" as="geometry" />
        </mxCell>
        <mxCell id="z0YsIwwLCyYLcJz00GNt-67" value="" style="endArrow=none;html=1;entryX=0;entryY=0.5;entryDx=0;entryDy=0;exitX=1;exitY=0.5;exitDx=0;exitDy=0;" edge="1" parent="1">
          <mxGeometry width="50" height="50" relative="1" as="geometry">
            <mxPoint x="410" y="338.5" as="sourcePoint" />
            <mxPoint x="490" y="339" as="targetPoint" />
          </mxGeometry>
        </mxCell>
        <mxCell id="z0YsIwwLCyYLcJz00GNt-68" value="&lt;u&gt;&lt;font style=&quot;font-size: 18px&quot;&gt;cid&lt;/font&gt;&lt;/u&gt;" style="ellipse;whiteSpace=wrap;html=1;" vertex="1" parent="1">
          <mxGeometry x="610" y="240" width="100" height="40" as="geometry" />
        </mxCell>
        <mxCell id="z0YsIwwLCyYLcJz00GNt-69" value="" style="endArrow=none;html=1;startArrow=none;startFill=0;entryX=0.5;entryY=0;entryDx=0;entryDy=0;exitX=0;exitY=0.5;exitDx=0;exitDy=0;" edge="1" parent="1" source="z0YsIwwLCyYLcJz00GNt-68" target="z0YsIwwLCyYLcJz00GNt-70">
          <mxGeometry width="50" height="50" relative="1" as="geometry">
            <mxPoint x="530" y="249" as="sourcePoint" />
            <mxPoint x="560" y="309" as="targetPoint" />
          </mxGeometry>
        </mxCell>
        <mxCell id="z0YsIwwLCyYLcJz00GNt-70" value="&lt;font style=&quot;font-size: 18px&quot;&gt;Teacher&lt;/font&gt;" style="rounded=0;whiteSpace=wrap;html=1;" vertex="1" parent="1">
          <mxGeometry x="480" y="318.5" width="110" height="40" as="geometry" />
        </mxCell>
        <mxCell id="z0YsIwwLCyYLcJz00GNt-71" value="" style="endArrow=none;html=1;exitX=0.5;exitY=0;exitDx=0;exitDy=0;entryX=0.5;entryY=1;entryDx=0;entryDy=0;" edge="1" parent="1" source="z0YsIwwLCyYLcJz00GNt-62" target="z0YsIwwLCyYLcJz00GNt-72">
          <mxGeometry width="50" height="50" relative="1" as="geometry">
            <mxPoint x="490" y="440" as="sourcePoint" />
            <mxPoint x="360" y="260" as="targetPoint" />
            <Array as="points" />
          </mxGeometry>
        </mxCell>
        <mxCell id="z0YsIwwLCyYLcJz00GNt-72" value="&lt;font style=&quot;font-size: 18px&quot;&gt;&lt;u&gt;since&lt;/u&gt;&lt;/font&gt;" style="ellipse;whiteSpace=wrap;html=1;" vertex="1" parent="1">
          <mxGeometry x="300" y="220" width="100" height="40" as="geometry" />
        </mxCell>
        <mxCell id="z0YsIwwLCyYLcJz00GNt-73" value="&lt;font style=&quot;font-size: 18px&quot;&gt;Teach&lt;/font&gt;" style="rhombus;whiteSpace=wrap;html=1;" vertex="1" parent="1">
          <mxGeometry x="290" y="469" width="120" height="59" as="geometry" />
        </mxCell>
        <mxCell id="z0YsIwwLCyYLcJz00GNt-74" value="&lt;font style=&quot;font-size: 18px&quot;&gt;Teacher&lt;/font&gt;" style="rounded=0;whiteSpace=wrap;html=1;" vertex="1" parent="1">
          <mxGeometry x="135" y="480" width="110" height="40" as="geometry" />
        </mxCell>
        <mxCell id="z0YsIwwLCyYLcJz00GNt-75" value="&lt;font style=&quot;font-size: 18px&quot;&gt;&lt;u&gt;id&lt;/u&gt;&lt;/font&gt;" style="ellipse;whiteSpace=wrap;html=1;" vertex="1" parent="1">
          <mxGeometry x="60" y="390" width="100" height="40" as="geometry" />
        </mxCell>
        <mxCell id="z0YsIwwLCyYLcJz00GNt-76" value="" style="endArrow=none;html=1;startArrow=none;startFill=0;entryX=0.5;entryY=0;entryDx=0;entryDy=0;" edge="1" parent="1">
          <mxGeometry width="50" height="50" relative="1" as="geometry">
            <mxPoint x="160" y="410" as="sourcePoint" />
            <mxPoint x="190" y="480" as="targetPoint" />
          </mxGeometry>
        </mxCell>
        <mxCell id="z0YsIwwLCyYLcJz00GNt-78" value="" style="endArrow=none;html=1;entryX=0;entryY=0.5;entryDx=0;entryDy=0;exitX=1;exitY=0.5;exitDx=0;exitDy=0;" edge="1" parent="1">
          <mxGeometry width="50" height="50" relative="1" as="geometry">
            <mxPoint x="410" y="498.5" as="sourcePoint" />
            <mxPoint x="490" y="499" as="targetPoint" />
          </mxGeometry>
        </mxCell>
        <mxCell id="z0YsIwwLCyYLcJz00GNt-79" value="&lt;u&gt;&lt;font style=&quot;font-size: 18px&quot;&gt;cid&lt;/font&gt;&lt;/u&gt;" style="ellipse;whiteSpace=wrap;html=1;" vertex="1" parent="1">
          <mxGeometry x="610" y="400" width="100" height="40" as="geometry" />
        </mxCell>
        <mxCell id="z0YsIwwLCyYLcJz00GNt-80" value="" style="endArrow=none;html=1;startArrow=none;startFill=0;entryX=0.5;entryY=0;entryDx=0;entryDy=0;exitX=0;exitY=0.5;exitDx=0;exitDy=0;" edge="1" parent="1" source="z0YsIwwLCyYLcJz00GNt-79" target="z0YsIwwLCyYLcJz00GNt-81">
          <mxGeometry width="50" height="50" relative="1" as="geometry">
            <mxPoint x="530" y="409" as="sourcePoint" />
            <mxPoint x="560" y="469" as="targetPoint" />
          </mxGeometry>
        </mxCell>
        <mxCell id="z0YsIwwLCyYLcJz00GNt-81" value="&lt;font style=&quot;font-size: 18px&quot;&gt;Teacher&lt;/font&gt;" style="rounded=0;whiteSpace=wrap;html=1;" vertex="1" parent="1">
          <mxGeometry x="480" y="478.5" width="110" height="40" as="geometry" />
        </mxCell>
        <mxCell id="z0YsIwwLCyYLcJz00GNt-82" value="" style="endArrow=none;html=1;exitX=0.5;exitY=0;exitDx=0;exitDy=0;entryX=0.5;entryY=1;entryDx=0;entryDy=0;" edge="1" parent="1" source="z0YsIwwLCyYLcJz00GNt-73" target="z0YsIwwLCyYLcJz00GNt-83">
          <mxGeometry width="50" height="50" relative="1" as="geometry">
            <mxPoint x="490" y="600" as="sourcePoint" />
            <mxPoint x="360" y="420" as="targetPoint" />
            <Array as="points" />
          </mxGeometry>
        </mxCell>
        <mxCell id="z0YsIwwLCyYLcJz00GNt-83" value="&lt;font style=&quot;font-size: 18px&quot;&gt;&lt;u&gt;since&lt;/u&gt;&lt;/font&gt;" style="ellipse;whiteSpace=wrap;html=1;" vertex="1" parent="1">
          <mxGeometry x="300" y="380" width="100" height="40" as="geometry" />
        </mxCell>
        <mxCell id="z0YsIwwLCyYLcJz00GNt-95" value="&lt;font style=&quot;font-size: 18px&quot;&gt;Teach&lt;/font&gt;" style="rhombus;whiteSpace=wrap;html=1;" vertex="1" parent="1">
          <mxGeometry x="290" y="629" width="120" height="59" as="geometry" />
        </mxCell>
        <mxCell id="z0YsIwwLCyYLcJz00GNt-114" style="edgeStyle=orthogonalEdgeStyle;shape=link;rounded=1;sketch=0;orthogonalLoop=1;jettySize=auto;html=1;exitX=1;exitY=0.5;exitDx=0;exitDy=0;startArrow=none;startFill=0;strokeWidth=1;" edge="1" parent="1" source="z0YsIwwLCyYLcJz00GNt-96" target="z0YsIwwLCyYLcJz00GNt-95">
          <mxGeometry relative="1" as="geometry" />
        </mxCell>
        <mxCell id="z0YsIwwLCyYLcJz00GNt-96" value="&lt;font style=&quot;font-size: 18px&quot;&gt;Teacher&lt;/font&gt;" style="rounded=0;whiteSpace=wrap;html=1;" vertex="1" parent="1">
          <mxGeometry x="135" y="640" width="110" height="40" as="geometry" />
        </mxCell>
        <mxCell id="z0YsIwwLCyYLcJz00GNt-97" value="&lt;font style=&quot;font-size: 18px&quot;&gt;&lt;u&gt;id&lt;/u&gt;&lt;/font&gt;" style="ellipse;whiteSpace=wrap;html=1;" vertex="1" parent="1">
          <mxGeometry x="60" y="550" width="100" height="40" as="geometry" />
        </mxCell>
        <mxCell id="z0YsIwwLCyYLcJz00GNt-98" value="" style="endArrow=none;html=1;startArrow=none;startFill=0;entryX=0.5;entryY=0;entryDx=0;entryDy=0;" edge="1" parent="1">
          <mxGeometry width="50" height="50" relative="1" as="geometry">
            <mxPoint x="160" y="570" as="sourcePoint" />
            <mxPoint x="190" y="640" as="targetPoint" />
          </mxGeometry>
        </mxCell>
        <mxCell id="z0YsIwwLCyYLcJz00GNt-100" value="" style="endArrow=none;html=1;entryX=0;entryY=0.5;entryDx=0;entryDy=0;exitX=1;exitY=0.5;exitDx=0;exitDy=0;" edge="1" parent="1">
          <mxGeometry width="50" height="50" relative="1" as="geometry">
            <mxPoint x="410" y="658.5" as="sourcePoint" />
            <mxPoint x="490" y="659" as="targetPoint" />
          </mxGeometry>
        </mxCell>
        <mxCell id="z0YsIwwLCyYLcJz00GNt-101" value="&lt;u&gt;&lt;font style=&quot;font-size: 18px&quot;&gt;cid&lt;/font&gt;&lt;/u&gt;" style="ellipse;whiteSpace=wrap;html=1;" vertex="1" parent="1">
          <mxGeometry x="610" y="560" width="100" height="40" as="geometry" />
        </mxCell>
        <mxCell id="z0YsIwwLCyYLcJz00GNt-102" value="" style="endArrow=none;html=1;startArrow=none;startFill=0;entryX=0.5;entryY=0;entryDx=0;entryDy=0;exitX=0;exitY=0.5;exitDx=0;exitDy=0;" edge="1" parent="1" source="z0YsIwwLCyYLcJz00GNt-101" target="z0YsIwwLCyYLcJz00GNt-103">
          <mxGeometry width="50" height="50" relative="1" as="geometry">
            <mxPoint x="530" y="569" as="sourcePoint" />
            <mxPoint x="560" y="629" as="targetPoint" />
          </mxGeometry>
        </mxCell>
        <mxCell id="z0YsIwwLCyYLcJz00GNt-103" value="&lt;font style=&quot;font-size: 18px&quot;&gt;Teacher&lt;/font&gt;" style="rounded=0;whiteSpace=wrap;html=1;" vertex="1" parent="1">
          <mxGeometry x="480" y="638.5" width="110" height="40" as="geometry" />
        </mxCell>
        <mxCell id="z0YsIwwLCyYLcJz00GNt-104" value="" style="endArrow=none;html=1;exitX=0.5;exitY=0;exitDx=0;exitDy=0;entryX=0.5;entryY=1;entryDx=0;entryDy=0;" edge="1" parent="1" source="z0YsIwwLCyYLcJz00GNt-95" target="z0YsIwwLCyYLcJz00GNt-105">
          <mxGeometry width="50" height="50" relative="1" as="geometry">
            <mxPoint x="490" y="760" as="sourcePoint" />
            <mxPoint x="360" y="580" as="targetPoint" />
            <Array as="points" />
          </mxGeometry>
        </mxCell>
        <mxCell id="z0YsIwwLCyYLcJz00GNt-105" value="&lt;font style=&quot;font-size: 18px&quot;&gt;&lt;u&gt;since&lt;/u&gt;&lt;/font&gt;" style="ellipse;whiteSpace=wrap;html=1;" vertex="1" parent="1">
          <mxGeometry x="300" y="540" width="100" height="40" as="geometry" />
        </mxCell>
        <mxCell id="z0YsIwwLCyYLcJz00GNt-110" style="edgeStyle=orthogonalEdgeStyle;rounded=1;sketch=0;orthogonalLoop=1;jettySize=auto;html=1;exitX=1;exitY=0.5;exitDx=0;exitDy=0;entryX=0;entryY=0.5;entryDx=0;entryDy=0;startArrow=none;startFill=0;strokeWidth=1;shape=link;" edge="1" parent="1" source="z0YsIwwLCyYLcJz00GNt-74" target="z0YsIwwLCyYLcJz00GNt-73">
          <mxGeometry relative="1" as="geometry" />
        </mxCell>
        <mxCell id="z0YsIwwLCyYLcJz00GNt-111" value="1" style="text;html=1;strokeColor=none;fillColor=none;align=center;verticalAlign=middle;whiteSpace=wrap;rounded=0;sketch=0;" vertex="1" parent="1">
          <mxGeometry x="250" y="634" width="40" height="20" as="geometry" />
        </mxCell>
        <mxCell id="z0YsIwwLCyYLcJz00GNt-112" value="1" style="text;html=1;strokeColor=none;fillColor=none;align=center;verticalAlign=middle;whiteSpace=wrap;rounded=0;sketch=0;" vertex="1" parent="1">
          <mxGeometry x="430" y="634" width="40" height="20" as="geometry" />
        </mxCell>
      </root>
    </mxGraphModel>
  </diagram>
</mxfile>
